<svg width="1200" height="900" viewBox="0 0 1200 900" fill="none" xmlns="http://www.w3.org/2000/svg">
  <rect width="1200" height="900" fill="#F8F2FF"/>
  <rect x="70" y="70" width="1060" height="760" rx="48" fill="#FFFFFF"/>
  <rect x="70" y="70" width="1060" height="150" rx="48" fill="#F1E6FF"/>
  <circle cx="950" cy="160" r="54" fill="#E7D6FF"/>
  <rect x="155" y="300" width="350" height="330" rx="34" fill="#F7F1FF"/>
  <rect x="560" y="300" width="465" height="180" rx="32" fill="#F8F2FF"/>
  <rect x="560" y="520" width="465" height="110" rx="28" fill="#EFE1FF"/>
  <rect x="155" y="680" width="870" height="72" rx="24" fill="#EDE0FF"/>
  <rect x="625" y="360" width="170" height="32" rx="16" fill="#E2CEFF"/>
  <rect x="625" y="410" width="260" height="22" rx="11" fill="#EFE1FF"/>
  <rect x="210" y="350" width="240" height="120" rx="26" fill="#EDE1FF"/>
  <rect x="210" y="505" width="140" height="70" rx="20" fill="#6F38D8"/>
  <rect x="210" y="505" width="140" height="70" rx="20" fill="url(#cta)" fill-opacity=".96"/>
  <defs>
    <linearGradient id="cta" x1="210" y1="505" x2="350" y2="575" gradientUnits="userSpaceOnUse">
      <stop stop-color="#8F5AF0"/>
      <stop offset="1" stop-color="#5D27C9"/>
    </linearGradient>
  </defs>
</svg>
