<svg width="1200" height="900" viewBox="0 0 1200 900" fill="none" xmlns="http://www.w3.org/2000/svg">
  <rect width="1200" height="900" fill="#F7F1FF"/>
  <rect x="90" y="90" width="1020" height="720" rx="52" fill="#FFFFFF"/>
  <rect x="90" y="90" width="1020" height="140" rx="52" fill="#F2E8FF"/>
  <circle cx="920" cy="160" r="60" fill="#E8D7FF"/>
  <circle cx="280" cy="190" r="42" fill="#EDE0FF"/>
  <rect x="170" y="330" width="360" height="280" rx="38" fill="#F8F2FF"/>
  <rect x="610" y="315" width="130" height="320" rx="50" fill="#E7D5FF"/>
  <rect x="770" y="315" width="130" height="320" rx="50" fill="#E7D5FF"/>
  <rect x="930" y="315" width="90" height="320" rx="44" fill="#E7D5FF"/>
  <rect x="640" y="250" width="350" height="44" rx="20" fill="#C6A0FF"/>
  <rect x="170" y="670" width="850" height="68" rx="24" fill="#EDE1FF"/>
  <rect x="232" y="405" width="236" height="78" rx="26" fill="#DCC4FF"/>
  <path d="M650 650C710 620 784 620 840 650" stroke="#45DD84" stroke-width="16" stroke-linecap="round"/>
</svg>
