<svg width="1600" height="1200" viewBox="0 0 1600 1200" fill="none" xmlns="http://www.w3.org/2000/svg">
  <rect width="1600" height="1200" fill="#F8F1FF"/>
  <rect x="110" y="90" width="1380" height="1020" rx="70" fill="url(#bg)"/>
  <circle cx="1310" cy="240" r="150" fill="#E6D4FF"/>
  <circle cx="290" cy="980" r="190" fill="#EFE1FF"/>
  <rect x="230" y="210" width="1140" height="680" rx="42" fill="#FFFFFF"/>
  <rect x="230" y="210" width="1140" height="120" rx="42" fill="#F1E6FF"/>
  <rect x="300" y="390" width="330" height="230" rx="34" fill="#F8F2FF"/>
  <rect x="970" y="390" width="300" height="300" rx="36" fill="#F8F2FF"/>
  <rect x="690" y="390" width="220" height="150" rx="30" fill="#F8F2FF"/>
  <rect x="300" y="760" width="970" height="72" rx="24" fill="#EFE2FF"/>
  <rect x="300" y="865" width="480" height="84" rx="28" fill="#6F38D8"/>
  <rect x="300" y="865" width="480" height="84" rx="28" fill="url(#cta)" fill-opacity=".95"/>
  <rect x="820" y="865" width="450" height="84" rx="28" fill="#FFFFFF" stroke="#DBC6FF" stroke-width="6"/>
  <path d="M1010 500C1050 445 1120 430 1180 465" stroke="#8F5AF0" stroke-width="24" stroke-linecap="round"/>
  <path d="M1000 600C1070 560 1160 555 1240 610" stroke="#45DD84" stroke-width="20" stroke-linecap="round"/>
  <circle cx="1108" cy="470" r="26" fill="#6F38D8"/>
  <rect x="360" y="440" width="210" height="110" rx="28" fill="#EDE0FF"/>
  <rect x="710" y="430" width="110" height="44" rx="18" fill="#E6D3FF"/>
  <rect x="710" y="492" width="160" height="28" rx="14" fill="#EDE0FF"/>
  <rect x="360" y="795" width="260" height="14" rx="7" fill="#D6BEFF"/>
  <rect x="360" y="908" width="180" height="16" rx="8" fill="#FFFFFF" fill-opacity=".62"/>
  <defs>
    <linearGradient id="bg" x1="206" y1="90" x2="1392" y2="1110" gradientUnits="userSpaceOnUse">
      <stop stop-color="#F7EFFF"/>
      <stop offset="1" stop-color="#E7D6FF"/>
    </linearGradient>
    <linearGradient id="cta" x1="300" y1="865" x2="780" y2="949" gradientUnits="userSpaceOnUse">
      <stop stop-color="#8F5AF0"/>
      <stop offset="1" stop-color="#5E28C9"/>
    </linearGradient>
  </defs>
</svg>
