<svg width="1400" height="900" viewBox="0 0 1400 900" fill="none" xmlns="http://www.w3.org/2000/svg">
  <rect width="1400" height="900" fill="#F5EEFF"/>
  <rect x="80" y="80" width="1240" height="740" rx="56" fill="url(#bg)"/>
  <path d="M250 690C420 560 660 520 890 580" stroke="#6F38D8" stroke-width="40" stroke-linecap="round"/>
  <path d="M220 760C410 670 710 670 980 760" stroke="#45DD84" stroke-width="30" stroke-linecap="round"/>
  <circle cx="620" cy="250" r="58" fill="#8F5AF0"/>
  <path d="M530 405C640 320 805 310 930 380" stroke="#A977FF" stroke-width="32" stroke-linecap="round"/>
  <path d="M540 470C640 430 760 440 860 505" stroke="#6F38D8" stroke-width="24" stroke-linecap="round"/>
  <path d="M565 505C495 565 445 640 418 720" stroke="#6F38D8" stroke-width="28" stroke-linecap="round"/>
  <path d="M845 505C920 560 975 640 1002 720" stroke="#6F38D8" stroke-width="24" stroke-linecap="round"/>
  <circle cx="1090" cy="210" r="86" fill="#E9D8FF"/>
  <circle cx="230" cy="220" r="64" fill="#EEDFFF"/>
  <defs>
    <linearGradient id="bg" x1="80" y1="80" x2="1320" y2="820" gradientUnits="userSpaceOnUse">
      <stop stop-color="#F9F3FF"/>
      <stop offset="1" stop-color="#E8D6FF"/>
    </linearGradient>
  </defs>
</svg>
