<svg width="1200" height="900" viewBox="0 0 1200 900" fill="none" xmlns="http://www.w3.org/2000/svg">
  <rect width="1200" height="900" fill="#F5EEFF"/>
  <rect x="92" y="90" width="1016" height="720" rx="50" fill="url(#bg)"/>
  <rect x="160" y="670" width="880" height="60" rx="24" fill="#EAD9FF"/>
  <path d="M390 550C450 430 600 380 720 450" stroke="#6F38D8" stroke-width="34" stroke-linecap="round"/>
  <path d="M372 610C485 545 640 545 760 625" stroke="#45DD84" stroke-width="26" stroke-linecap="round"/>
  <circle cx="570" cy="360" r="48" fill="#8F5AF0"/>
  <path d="M675 445C745 420 826 435 890 500" stroke="#B489FF" stroke-width="28" stroke-linecap="round"/>
  <path d="M755 518C820 550 855 605 862 675" stroke="#6F38D8" stroke-width="22" stroke-linecap="round"/>
  <path d="M475 505C430 565 400 635 388 705" stroke="#6F38D8" stroke-width="26" stroke-linecap="round"/>
  <path d="M690 685C760 700 835 695 910 670" stroke="#DCC5FF" stroke-width="16" stroke-linecap="round"/>
  <rect x="760" y="240" width="190" height="110" rx="30" fill="#FFFFFF" fill-opacity=".54"/>
  <rect x="800" y="280" width="110" height="24" rx="12" fill="#E7D6FF"/>
  <defs>
    <linearGradient id="bg" x1="92" y1="90" x2="1108" y2="810" gradientUnits="userSpaceOnUse">
      <stop stop-color="#F9F4FF"/>
      <stop offset="1" stop-color="#E8D7FF"/>
    </linearGradient>
  </defs>
</svg>
